<svg width="372" height="372" viewBox="0 0 372 372" fill="none" xmlns="http://www.w3.org/2000/svg">
<path d="M39.5745 0H15.8298C7.08724 0 0 7.08724 0 15.8298V39.5745C0 48.317 7.08724 55.4043 15.8298 55.4043H39.5745C48.317 55.4043 55.4043 48.317 55.4043 39.5745V15.8298C55.4043 7.08724 48.317 0 39.5745 0Z" fill="white"/>
<path d="M118.723 0H94.9787C86.2362 0 79.1489 7.08724 79.1489 15.8298V39.5745C79.1489 48.317 86.2362 55.4043 94.9787 55.4043H118.723C127.466 55.4043 134.553 48.317 134.553 39.5745V15.8298C134.553 7.08724 127.466 0 118.723 0Z" fill="white"/>
<path d="M197.872 0H174.128C165.385 0 158.298 7.08724 158.298 15.8298V39.5745C158.298 48.317 165.385 55.4043 174.128 55.4043H197.872C206.615 55.4043 213.702 48.317 213.702 39.5745V15.8298C213.702 7.08724 206.615 0 197.872 0Z" fill="#EAB308"/>
<path d="M277.021 0H253.277C244.534 0 237.447 7.08724 237.447 15.8298V39.5745C237.447 48.317 244.534 55.4043 253.277 55.4043H277.021C285.764 55.4043 292.851 48.317 292.851 39.5745V15.8298C292.851 7.08724 285.764 0 277.021 0Z" fill="white"/>
<path d="M356.17 0H332.426C323.683 0 316.596 7.08724 316.596 15.8298V39.5745C316.596 48.317 323.683 55.4043 332.426 55.4043H356.17C364.913 55.4043 372 48.317 372 39.5745V15.8298C372 7.08724 364.913 0 356.17 0Z" fill="#EAB308"/>
<path d="M39.5745 79.1489H15.8298C7.08724 79.1489 0 86.2362 0 94.9787V118.723C0 127.466 7.08724 134.553 15.8298 134.553H39.5745C48.317 134.553 55.4043 127.466 55.4043 118.723V94.9787C55.4043 86.2362 48.317 79.1489 39.5745 79.1489Z" fill="#EAB308"/>
<path d="M118.723 79.1489H94.9787C86.2362 79.1489 79.1489 86.2362 79.1489 94.9787V118.723C79.1489 127.466 86.2362 134.553 94.9787 134.553H118.723C127.466 134.553 134.553 127.466 134.553 118.723V94.9787C134.553 86.2362 127.466 79.1489 118.723 79.1489Z" fill="#84CC16"/>
<path d="M197.872 79.1489H174.128C165.385 79.1489 158.298 86.2362 158.298 94.9787V118.723C158.298 127.466 165.385 134.553 174.128 134.553H197.872C206.615 134.553 213.702 127.466 213.702 118.723V94.9787C213.702 86.2362 206.615 79.1489 197.872 79.1489Z" fill="white"/>
<path d="M277.021 79.1489H253.277C244.534 79.1489 237.447 86.2362 237.447 94.9787V118.723C237.447 127.466 244.534 134.553 253.277 134.553H277.021C285.764 134.553 292.851 127.466 292.851 118.723V94.9787C292.851 86.2362 285.764 79.1489 277.021 79.1489Z" fill="#EAB308"/>
<path d="M356.17 79.1489H332.426C323.683 79.1489 316.596 86.2362 316.596 94.9787V118.723C316.596 127.466 323.683 134.553 332.426 134.553H356.17C364.913 134.553 372 127.466 372 118.723V94.9787C372 86.2362 364.913 79.1489 356.17 79.1489Z" fill="white"/>
<path d="M39.5745 158.298H15.8298C7.08724 158.298 0 165.385 0 174.128V197.872C0 206.615 7.08724 213.702 15.8298 213.702H39.5745C48.317 213.702 55.4043 206.615 55.4043 197.872V174.128C55.4043 165.385 48.317 158.298 39.5745 158.298Z" fill="white"/>
<path d="M118.723 158.298H94.9787C86.2362 158.298 79.1489 165.385 79.1489 174.128V197.872C79.1489 206.615 86.2362 213.702 94.9787 213.702H118.723C127.466 213.702 134.553 206.615 134.553 197.872V174.128C134.553 165.385 127.466 158.298 118.723 158.298Z" fill="#84CC16"/>
<path d="M197.872 158.298H174.128C165.385 158.298 158.298 165.385 158.298 174.128V197.872C158.298 206.615 165.385 213.702 174.128 213.702H197.872C206.615 213.702 213.702 206.615 213.702 197.872V174.128C213.702 165.385 206.615 158.298 197.872 158.298Z" fill="white"/>
<path d="M277.021 158.298H253.277C244.534 158.298 237.447 165.385 237.447 174.128V197.872C237.447 206.615 244.534 213.702 253.277 213.702H277.021C285.764 213.702 292.851 206.615 292.851 197.872V174.128C292.851 165.385 285.764 158.298 277.021 158.298Z" fill="#EAB308"/>
<path d="M356.17 158.298H332.426C323.683 158.298 316.596 165.385 316.596 174.128V197.872C316.596 206.615 323.683 213.702 332.426 213.702H356.17C364.913 213.702 372 206.615 372 197.872V174.128C372 165.385 364.913 158.298 356.17 158.298Z" fill="white"/>
<path d="M39.5745 237.447H15.8298C7.08724 237.447 0 244.534 0 253.277V277.021C0 285.764 7.08724 292.851 15.8298 292.851H39.5745C48.317 292.851 55.4043 285.764 55.4043 277.021V253.277C55.4043 244.534 48.317 237.447 39.5745 237.447Z" fill="#84CC16"/>
<path d="M118.723 237.447H94.9787C86.2362 237.447 79.1489 244.534 79.1489 253.277V277.021C79.1489 285.764 86.2362 292.851 94.9787 292.851H118.723C127.466 292.851 134.553 285.764 134.553 277.021V253.277C134.553 244.534 127.466 237.447 118.723 237.447Z" fill="#84CC16"/>
<path d="M197.872 237.447H174.128C165.385 237.447 158.298 244.534 158.298 253.277V277.021C158.298 285.764 165.385 292.851 174.128 292.851H197.872C206.615 292.851 213.702 285.764 213.702 277.021V253.277C213.702 244.534 206.615 237.447 197.872 237.447Z" fill="#84CC16"/>
<path d="M277.021 237.447H253.277C244.534 237.447 237.447 244.534 237.447 253.277V277.021C237.447 285.764 244.534 292.851 253.277 292.851H277.021C285.764 292.851 292.851 285.764 292.851 277.021V253.277C292.851 244.534 285.764 237.447 277.021 237.447Z" fill="white"/>
<path d="M356.17 237.447H332.426C323.683 237.447 316.596 244.534 316.596 253.277V277.021C316.596 285.764 323.683 292.851 332.426 292.851H356.17C364.913 292.851 372 285.764 372 277.021V253.277C372 244.534 364.913 237.447 356.17 237.447Z" fill="#EAB308"/>
<path d="M39.5745 316.596H15.8298C7.08724 316.596 0 323.683 0 332.426V356.17C0 364.913 7.08724 372 15.8298 372H39.5745C48.317 372 55.4043 364.913 55.4043 356.17V332.426C55.4043 323.683 48.317 316.596 39.5745 316.596Z" fill="#84CC16"/>
<path d="M118.723 316.596H94.9787C86.2362 316.596 79.1489 323.683 79.1489 332.426V356.17C79.1489 364.913 86.2362 372 94.9787 372H118.723C127.466 372 134.553 364.913 134.553 356.17V332.426C134.553 323.683 127.466 316.596 118.723 316.596Z" fill="#84CC16"/>
<path d="M197.872 316.596H174.128C165.385 316.596 158.298 323.683 158.298 332.426V356.17C158.298 364.913 165.385 372 174.128 372H197.872C206.615 372 213.702 364.913 213.702 356.17V332.426C213.702 323.683 206.615 316.596 197.872 316.596Z" fill="#84CC16"/>
<path d="M277.021 316.596H253.277C244.534 316.596 237.447 323.683 237.447 332.426V356.17C237.447 364.913 244.534 372 253.277 372H277.021C285.764 372 292.851 364.913 292.851 356.17V332.426C292.851 323.683 285.764 316.596 277.021 316.596Z" fill="#84CC16"/>
<path d="M356.17 316.596H332.426C323.683 316.596 316.596 323.683 316.596 332.426V356.17C316.596 364.913 323.683 372 332.426 372H356.17C364.913 372 372 364.913 372 356.17V332.426C372 323.683 364.913 316.596 356.17 316.596Z" fill="#84CC16"/>
</svg>
